<?xml version="1.0" encoding="utf-8"?>
<!-- Generator: Adobe Illustrator 19.2.1, SVG Export Plug-In . SVG Version: 6.00 Build 0)  -->
<svg version="1.1" id="Layer_1" xmlns="http://www.w3.org/2000/svg" xmlns:xlink="http://www.w3.org/1999/xlink" x="0px" y="0px"
	 viewBox="0 0 452 451" style="enable-background:new 0 0 452 451;" xml:space="preserve">
<path d="M226,439c-117.9,0-213.5-95.6-213.5-213.5S108.1,12,226,12s213.5,95.6,213.5,213.5S343.9,439,226,439z M348.4,263.7
	L236.1,152.9c-2.3-2.3-6-2.2-8.4,0.1l-12.9,13l-101.4,98c-2.3,2.3-2.2,6,0.1,8.3l16,16.1c2.3,2.3,6,2.4,8.3,0.1l94-90.9l91.9,90.8
	c2.3,2.3,6,2.2,8.4-0.1l16.1-16.2C350.6,269.8,350.6,266,348.4,263.7z"/>
</svg>
