<?xml version="1.0" encoding="utf-8"?>
<!-- Generator: Adobe Illustrator 19.2.1, SVG Export Plug-In . SVG Version: 6.00 Build 0)  -->
<svg version="1.1" id="Layer_1" xmlns="http://www.w3.org/2000/svg" xmlns:xlink="http://www.w3.org/1999/xlink" x="0px" y="0px"
	 viewBox="0 0 452 451" style="enable-background:new 0 0 452 451;" xml:space="preserve">
<path d="M225.2,439.5C106.8,439.5,11,343.7,11,225.2S106.8,11,225.2,11s214.2,95.8,214.2,214.2S343.7,439.5,225.2,439.5z M225.2,126
	c-56.4,0-102.6,41.7-102.6,92.5c0,23.7,10.1,46.2,27.1,62l-27.1,56.4l64.3-32.7c12.4,4.5,24.8,6.8,38.3,6.8
	c57.5,0,102.6-41.7,102.6-92.5C327.9,166.6,281.6,126,225.2,126z M225.2,281.6c-38.3,0-71-27.1-71-60.9s31.6-60.9,71-60.9
	s71,27.1,71,60.9S263.6,281.6,225.2,281.6z"/>
</svg>
