<?xml version="1.0" encoding="utf-8"?>
<!-- Generator: Adobe Illustrator 19.2.1, SVG Export Plug-In . SVG Version: 6.00 Build 0)  -->
<svg version="1.1" id="Layer_1" xmlns="http://www.w3.org/2000/svg" xmlns:xlink="http://www.w3.org/1999/xlink" x="0px" y="0px"
	 viewBox="0 0 452 451" style="enable-background:new 0 0 452 451;" xml:space="preserve">
<path d="M226,439.7c-118.4,0-214.2-95.8-214.2-214.2S107.6,11.3,226,11.3s214.2,95.8,214.2,214.2S344.4,439.7,226,439.7z
	 M204.6,323.6c4.5,4.5,9,6.8,14.7,6.8c3.4,0,5.6-1.1,7.9-2.3c2.3-1.1,4.5-2.3,6.8-4.5c2.3-2.3,3.4-4.5,4.5-6.8
	c1.1-2.3,1.1-5.6,1.1-7.9c0-5.6-2.3-11.3-5.6-14.7c-4.5-4.5-9-6.8-14.7-6.8s-11.3,2.3-14.7,6.8c-4.5,4.5-5.6,9-5.6,14.7
	C197.8,314.6,200.1,319.1,204.6,323.6z M276.7,153.3c-3.4-5.6-6.8-10.1-11.3-14.7c-4.5-4.5-11.3-6.8-18-10.1
	c-6.8-2.3-15.8-3.4-23.7-3.4c-9,0-16.9,1.1-23.7,3.4c-6.8,2.3-12.4,5.6-16.9,9s-7.9,7.9-10.1,12.4c-2.3,4.5-3.4,7.9-3.4,12.4
	c0,2.3,0,5.6,1.1,6.8c1.1,2.3,2.3,3.4,4.5,4.5c1.1,1.1,3.4,2.3,5.6,3.4c2.3,1.1,3.4,1.1,5.6,1.1c3.4,0,6.8-1.1,7.9-3.4
	c1.1-2.3,3.4-4.5,5.6-7.9c2.3-2.3,4.5-5.6,7.9-7.9c3.4-2.3,9-3.4,15.8-3.4c6.8,0,12.4,1.1,18,4.5c4.5,3.4,6.8,7.9,6.8,14.7
	c0,3.4-1.1,6.8-2.3,10.1c-2.3,3.4-3.4,5.6-6.8,7.9c-2.3,2.3-5.6,4.5-7.9,6.8c-3.4,2.3-5.6,4.5-7.9,5.6c-2.3,1.1-4.5,3.4-6.8,5.6
	s-4.5,5.6-5.6,9c-2.3,3.4-3.4,6.8-4.5,11.3c-1.1,4.5-2.3,10.1-2.3,15.8c0,6.8,1.1,12.4,3.4,14.7c2.3,2.3,5.6,3.4,11.3,3.4
	c6.8,0,11.3-1.1,13.5-3.4s3.4-4.5,3.4-7.9c0-3.4,0-6.8,0-10.1s1.1-5.6,2.3-9c1.1-2.3,2.3-5.6,4.5-7.9c2.3-2.3,4.5-5.6,9-9
	c2.3-1.1,4.5-3.4,7.9-6.8c3.4-3.4,6.8-6.8,10.1-11.3c3.4-4.5,6.8-9,9-14.7c2.3-5.6,3.4-11.3,3.4-18
	C281.2,164.6,280.1,159,276.7,153.3z"/>
</svg>
